<svg xmlns="http://www.w3.org/2000/svg" viewBox="0 0 16 16">
  <defs/>
  <path d="M8 15c-.5 0-4.9 0-4.9-1.4 0-.7 1-1.1 3.1-1.3.2 0 .4.1.4.3 0 .2-.1.4-.3.4-1.4.1-2.1.4-2.4.6.3.2 1.7.6 4.1.6 2.4 0 3.8-.4 4.1-.6-.2-.2-.9-.4-2.3-.6-.2 0-.4-.2-.3-.4 0-.2.2-.4.4-.3 1.4.1 3.1.5 3.1 1.3C12.9 15 8.5 15 8 15z"/>
  <path d="M8 13.4c-.1 0-.3-.1-.3-.2-.2-.3-.3-.5-.5-.8-.8-1.3-1.7-2.9-2.4-4.4-.1-.2 0-.4.2-.5.2-.1.4 0 .5.2.6 1.4 1.6 3 2.4 4.2 0 .2.1.3.1.4 1.4-2.2 3.2-5.3 3.2-7.1 0-1.3-.8-2.5-2-3-.1-.1-.2-.3-.1-.5s.3-.3.5-.2c1.5.6 2.5 2.1 2.5 3.7 0 2.1-2.1 5.3-3.5 7.8l-.2.3c-.1 0-.2.1-.4.1z"/>
  <path d="M8.9 8.9c-.1 0-.2 0-.3-.1-.1-.1-.5-.6-1-1-.2-.4-.5-.7-.7-1-.5.2-1 .2-1.5 0-1.6-.4-2.5-2-2.1-3.6 0-.1.1-.2.1-.2.1-.1.3-.2.4-.2.2 0 .3.1.5.2l1.2 1.2.7-.2.1-.8-1.1-1.1V2s-.1-.1-.1-.2c-.1-.3 0-.6.3-.7.6-.2 1.2-.1 1.7.1 1.5.5 2.3 2 1.9 3.5.3.2.6.7 1 1.1l.2.2c.1.2.1.4 0 .5-.2.1-.4.1-.5 0 0 0-.1-.1-.2-.3-.4-.3-1-1-1.2-1.1-.1-.1-.1-.3 0-.4.4-1.2-.3-2.4-1.4-2.8-.3-.1-.6-.2-.9-.1l1.1 1.1c.1.1.1.2.1.3L7 4.4c0 .2-.2.3-.3.3l-1.3.2c-.1 0-.3 0-.3-.1L4 3.7c-.1.5 0 1 .3 1.4.3.5.8.9 1.3 1 .4.1.9.1 1.3-.1.1 0 .3 0 .4.1.1.1.5.6 1 1l1 1c.2.2.2.4 0 .6-.2.1-.3.2-.4.2z"/>
</svg>
