<svg xmlns="http://www.w3.org/2000/svg" viewBox="0 0 64 64"><path d="M40.4 51.5c-1-.1-1.8.6-1.9 1.6-.1 1 .6 1.8 1.6 1.9 6.3.6 9.6 1.8 10.5 2.5-1.5 1.1-7.9 2.9-18.6 2.9-10.7 0-17.1-1.8-18.6-2.9 1-.7 4.3-1.9 10.7-2.5 1-.1 1.7-1 1.6-1.9-.1-1-1-1.7-1.9-1.6-9.4.9-14.1 2.9-14.1 6-.1 6.3 20 6.5 22.3 6.5 2.3 0 22.4-.2 22.4-6.5 0-3.8-7.6-5.4-14-6z"/><path d="M37.9 5.4c5.6 2.3 9.2 7.7 9.2 13.8 0 8-8.6 22.2-14.8 32.2-.3-.5-.6-.9-.8-1.3-3.5-5.8-7.9-13-10.8-19.4-.4-.9-1.5-1.3-2.3-.9-.9.4-1.3 1.5-.9 2.3 3 6.6 7.4 13.9 11 19.7.8 1.3 1.6 2.6 2.3 3.8.3.5.9.9 1.5.9s1.2-.3 1.5-.8l.7-1.2c6.9-10.9 16.2-26 16.2-35.4 0-7.5-4.5-14.2-11.4-17-.9-.4-1.9.1-2.3 1-.4.9 0 2 .9 2.3z"/><path d="M20.3 26.7c2.2.6 4.5.6 6.6.1.9.9 2.4 2.5 3.7 4 2.1 2.3 4.1 4.4 4.5 4.8.4.4.8.5 1.3.5s.9-.2 1.3-.5c.7-.7.7-1.8 0-2.5-.4-.4-2.6-2.7-4.4-4.7-2.1-2.3-4.1-4.4-4.5-4.8-.5-.5-1.2-.7-1.8-.4-1.8.6-3.7.7-5.7.2-2.6-.7-4.7-2.3-6.1-4.6-1.1-1.9-1.6-4-1.3-6.1l5 5c.4.4 1 .6 1.6.5l5.5-.9c.8-.1 1.3-.7 1.5-1.5l1-5.5c.1-.6-.1-1.1-.5-1.5l-5-5.1c1.4-.2 2.9.1 4.2.5 5.2 1.8 8 7.5 6.2 12.7-.2.7-.1 1.4.4 1.8.6.6 3.5 4 4.9 5.6.5.6.9 1 1 1.2.7.8 1.8.8 2.5.2.8-.7.8-1.8.2-2.5-.2-.2-.5-.6-1-1.2-1.7-2-3.3-3.9-4.3-5 1.8-6.8-2-13.9-8.7-16.2-2.5-.9-5.1-1-7.7-.4h-.1c-1.4.4-2.2 1.8-1.9 3.2 0 .1.1.2.1.2.1.4.3.7.5.9.1.1.2.2.2.3l5.4 5.5-.6 3.4-3.4.6L15.2 9c-.6-.6-1.3-.9-2.1-.8-.7 0-1.4.4-1.9.9-.3.3-.5.7-.7 1.1 0 .1 0 .1-.1.1-1.7 7.1 2.6 14.5 9.9 16.4z"/></svg>